<svg width="376" height="493" viewBox="0 0 376 493" fill="none" xmlns="http://www.w3.org/2000/svg">
<path d="M341.221 30.5947C343.433 52.838 345.203 74.4921 347.847 96.0234C349.925 112.933 345.399 125.869 332.542 133.128C322.668 138.7 311.906 142.289 301.453 146.472C296.137 148.59 290.475 149.682 285.211 151.941C282.263 153.203 279.24 155.383 277.249 158.138C271.102 166.644 273.782 175.262 283.232 177.639C293.483 180.212 303.306 178.348 312.533 173.057C327.244 164.621 339.244 152.081 350.831 138.955C353.264 136.19 355.6 133.313 359.151 129.079C358.572 149.109 359.867 167.862 357.075 185.631C353.417 208.981 338.132 222.171 317.458 222.278C303.794 222.344 290.058 219.991 276.359 218.685C271.596 218.237 266.848 217.516 262.079 217.204C253.421 216.646 248.347 220.121 245.456 228.283C242.651 236.18 244.61 245.38 250.692 251.581C259.015 260.08 269.257 262.241 279.581 262.46C311.815 263.149 338.774 249.946 359.6 221.47C360.169 220.686 360.793 219.975 362.032 218.432C362.158 220.941 362.462 222.527 362.285 224.033C360.831 236.453 359.987 249.051 357.633 261.216C352.512 287.662 335.875 301.1 311.403 300.337C292.824 299.752 275.233 293.204 257.327 288.252C246.247 285.191 235.042 282.562 223.801 280.649C215.582 279.26 210.466 282.098 209.377 287.452C207.875 294.89 212.163 299.571 216.619 303.531C228.62 314.172 242.523 319.398 257.098 321.146C287.332 324.778 317.185 323.601 345.629 310.452C345.854 310.969 346.198 311.447 346.101 311.626C340.479 323.192 334.9 334.797 329.136 346.264C322.704 359.038 312.849 364.834 300.07 364.863C280.15 364.905 261.913 356.534 243.602 348.464C234.799 344.59 226.068 340.467 217.19 336.911C213.105 335.278 208.37 333.378 205.133 338.702C201.991 343.898 203.918 348.99 206.711 353.53C214.901 366.806 226.742 372.95 239.877 376.136C261.683 381.421 283.634 381.673 307.134 379.779C296.171 392.776 288.173 407.455 273.969 413.971C265.368 417.918 256.211 416.149 248.289 411.418C232.704 402.116 217.668 391.514 202.431 381.424C198.098 378.552 193.969 375.119 189.432 372.793C185.542 370.801 180.979 369.602 177.803 374.282C174.833 378.673 175.546 383.889 178.229 387.991C181.213 392.532 184.734 396.935 188.738 400.22C206.606 414.869 226.317 424.097 247.919 427.225C249.191 427.413 250.478 427.585 251.747 427.825C252.082 427.89 252.375 428.226 252.888 428.565C252.731 429.046 252.696 429.761 252.375 430.005C231.827 445.419 209.755 454.172 184.508 450.017C158.662 445.772 136.036 421.659 131.765 393.148C130.005 381.401 132.205 370.265 135.468 359.349C138.573 348.966 141.923 338.674 144.638 328.134C146.407 321.252 147.059 314.026 142.979 305.738C106.873 355.632 74.6667 407.638 46.5549 464.067L37.3129 455.978C66.7382 400.374 100.57 349.137 136.72 299.538C131.787 295.104 126.399 294.512 121.303 296.051C111.635 298.956 102.16 302.718 92.6234 306.235C77.5847 311.766 62.4932 314.794 47.047 306.839C22.2851 294.073 7.79023 263.917 10.5764 231.109C12.773 205.158 23.1846 183.657 36.2202 163.567C38.4829 160.085 40.9431 156.775 44.2231 152.071C44.2048 161.068 44.0201 168.373 44.1878 175.694C44.5151 189.907 46.6569 203.744 52.3777 216.651C56.6426 226.257 62.6145 234.089 70.7373 239.507C76.723 243.492 83.1333 242.761 86.8922 237.896C90.5101 233.207 90.5047 226.175 86.637 219.55C80.3956 208.834 73.7261 198.438 67.8343 187.499C62.199 177.029 57.4925 165.637 57.7844 153.193C57.9796 144.486 59.004 135.088 62.1634 127.464C70.0551 108.395 85.4214 96.8391 98.0308 82.3888C92.8841 102.212 89.9067 122.222 89.9766 142.826C90.0488 161.601 92.574 179.887 100.678 196.697C105.029 205.746 110.722 213.279 119.582 216.576C128.818 220.029 135.426 213.516 132.958 202.711C131.456 196.172 128.733 189.91 126.198 183.735C118.84 165.832 111.899 147.832 109.434 128.028C105.885 99.4831 114.459 76.7492 135.98 63.3769C147.37 56.3053 160.027 51.9019 172.111 46.2983L173.182 48.1441C172.878 48.9367 172.701 49.8438 172.27 50.5218C152.338 81.7504 148.618 117.071 155.039 154.816C156.599 164.03 158.798 173.151 161.299 182.111C163.663 190.562 168.405 195.286 172.488 194.592C176.734 193.862 180.194 188.2 179.757 179.177C179.218 167.75 177.62 156.308 175.943 144.979C174.046 132.157 170.462 119.502 169.538 106.636C166.731 67.8614 184.155 43.856 217.047 39.5944C224.988 38.5624 232.93 37.5134 241.479 36.4017C240.315 37.9174 239.432 39.1003 238.537 40.2307C221.048 62.2627 208.946 87.2821 209.532 118.594C209.671 126.476 211.474 134.67 213.917 142.119C214.991 145.419 219.658 149.263 222.533 149.174C225.452 149.09 229.697 145.11 230.705 141.714C233.038 133.825 234.342 125.325 235.023 116.92C236.131 103.15 235.792 89.1751 237.177 75.465C239.6 51.4851 253.433 37.8857 274.093 37.7595C296.99 37.6216 319.821 36.7588 341.192 30.5919L341.221 30.5947ZM157.168 273.336C139.621 256.082 122.194 239.661 105.492 222.282C95.2015 211.579 87.0537 198.632 82.521 183.133C81.8781 180.951 81.101 178.808 80.3685 176.652C80.9906 187.882 84.8007 197.752 89.9504 207.03C99.3437 223.962 112.15 237.074 125.251 249.872C134.588 259.013 143.831 268.283 153.499 277.884L144.726 288.863C132.109 278.471 118.228 274 103.507 273.111C86.7751 272.101 69.7799 273.736 53.859 264.368C58.4272 267.843 63.0946 271.396 68.1031 272.517C79.8227 275.16 91.692 276.858 103.535 278.503C115.611 280.187 126.996 284.235 137.089 292.37C150.651 303.295 158.439 318.176 157.747 337.511C157.391 347.674 155.802 357.772 154.406 367.837C153.097 377.346 153.438 385.932 155.042 389.505C156.128 380.95 156.669 370.309 158.921 360.204C163.562 339.29 164.827 319.085 153.199 300.01C150.598 295.745 153.961 294.71 156.596 291.143C162.322 300.373 168.072 308.544 172.74 317.434C177.744 326.972 181.529 337.354 186.242 347.121C194.907 365.096 208.05 376.751 224.691 383.159C225.891 383.614 227.216 383.602 228.487 383.807C227.381 382.06 226.094 381.289 224.755 380.684C207.897 373.007 195.838 359.367 188.044 340.465C180.208 321.507 173.79 301.554 159.201 287.299C161.544 284.269 163.463 281.781 165.681 278.91C191.605 309.834 221.539 330.837 258.255 336.156C223.514 325.736 193.923 305.245 169.401 273.939C177.601 262.924 185.281 252.594 193.055 242.154C227.41 271.083 265.299 283.031 306.614 279.887C266.62 278.656 229.602 266.653 196.84 237.053C208.899 220.344 220.49 204.156 232.348 188.232C233.168 187.128 236.296 187.286 237.844 188.133C252.045 195.97 266.77 200.931 282.439 201.704C292.631 202.201 303.965 200.137 309.27 195.863C283.597 200.924 259.918 196.317 237.244 182.106C260.716 147.464 283.869 113.305 307.007 79.1443L305.517 77.721C275.9 117.277 246.267 156.848 216.318 196.834C199.657 170.905 191.377 143.061 191.707 111.989C187.9 134.795 193.039 162.429 205.552 187.712C207.761 192.163 212.09 196.915 211.685 200.932C211.245 205.356 206.581 209.177 203.59 213.104C195.074 224.261 186.473 235.342 177.554 246.906C151.901 215.255 140.471 177.003 132.626 136.814C137.103 179.321 148.086 218.865 173.916 251.713C168.208 259.063 162.77 266.045 157.125 273.315L157.168 273.336Z" fill="#42A0B6" fill-opacity="0.2"/>
</svg>
