<svg width="260" height="58" viewBox="0 0 260 58" fill="none" xmlns="http://www.w3.org/2000/svg">
<g clip-path="url(#clip0_196_50)">
<path d="M78.9939 39.6438H80.2941C82.1193 39.6438 83.0319 39.0874 83.0319 37.9686V10.1772H76.5842C75.3435 10.1772 74.4787 10.955 73.9836 12.5046C73.4886 14.0542 73.2261 15.6218 73.1963 17.2073H71.9437V8.26855H98.671V17.2073H97.4185C97.323 15.5619 97.0367 13.9824 96.5596 12.4567C96.0824 10.937 95.2354 10.1772 94.0306 10.1772H87.5829V37.9686C87.5829 39.0874 88.4775 39.6438 90.2729 39.6438H91.6209V40.8524H78.9998V39.6438H78.9939Z" fill="#F4F4F4"/>
<path d="M116.046 18.9962C116.678 19.3193 116.994 19.8279 116.994 20.5099C116.994 21.1023 116.845 21.551 116.553 21.8621C116.261 22.1732 115.849 22.3288 115.324 22.3288C114.984 22.3288 114.716 22.269 114.513 22.1433C114.31 22.0177 114.131 21.8502 113.982 21.6288C113.767 21.4134 113.565 21.2518 113.38 21.1382C113.195 21.0305 112.932 20.9766 112.592 20.9766C111.787 20.9766 111.024 21.2698 110.296 21.8621C109.568 22.4544 108.972 23.304 108.507 24.4229C108.041 25.5417 107.779 26.8281 107.719 28.2879V38.2019C107.719 38.6985 107.952 39.0695 108.417 39.3208C108.882 39.572 109.485 39.6917 110.224 39.6917H111.012V40.8584H100.013V39.6917H100.896C101.641 39.6917 102.232 39.5661 102.685 39.3208C103.133 39.0754 103.359 38.6985 103.359 38.2019V22.5621C103.359 21.91 103.049 21.5869 102.429 21.5869C102.119 21.5869 101.653 21.7125 101.039 21.9579L100.759 20.9347L106.699 18.8407H107.719V23.1246C108.155 21.7903 108.924 20.6894 110.04 19.8219C111.155 18.9543 112.39 18.5176 113.749 18.5176C114.644 18.5176 115.414 18.6791 116.046 19.0082V18.9962Z" fill="#F4F4F4"/>
<path d="M121.706 38.3394C119.648 36.353 118.623 33.547 118.623 29.9152C118.623 26.2835 119.66 23.4774 121.73 21.491C123.8 19.5047 126.693 18.5115 130.409 18.5115C134.125 18.5115 137.005 19.5047 139.063 21.491C141.121 23.4774 142.147 26.2835 142.147 29.9152C142.147 33.547 141.115 36.353 139.063 38.3394C137.005 40.3258 134.119 41.319 130.409 41.319C126.699 41.319 123.764 40.3258 121.706 38.3394ZM135.836 37.0351C137.166 35.3598 137.834 32.9845 137.834 29.9152C137.834 26.8459 137.166 24.5245 135.836 22.8612C134.506 21.2039 132.699 20.3722 130.409 20.3722C128.118 20.3722 126.263 21.2039 124.933 22.8612C123.603 24.5245 122.935 26.8698 122.935 29.9152C122.935 32.9606 123.597 35.3598 124.933 37.0351C126.263 38.7104 128.088 39.548 130.409 39.548C132.729 39.548 134.506 38.7104 135.836 37.0351Z" fill="#F4F4F4"/>
<path d="M144.515 50.162H145.398C146.143 50.162 146.746 50.0363 147.205 49.791C147.67 49.5397 147.903 49.1688 147.903 48.6722V22.556C147.903 22.215 147.801 21.9697 147.598 21.8082C147.396 21.6526 147.175 21.5748 146.924 21.5748C146.674 21.5748 146.215 21.7005 145.535 21.9458L145.213 20.9227L151.058 18.8286H152.215V22.4124C153.11 21.0184 154.243 20.0132 155.603 19.4089C156.963 18.8046 158.4 18.4995 159.921 18.4995C162.951 18.4995 165.337 19.4329 167.067 21.2936C168.797 23.1543 169.667 25.8408 169.667 29.3468C169.667 33.535 168.749 36.5804 166.906 38.471C165.063 40.3617 162.379 41.313 158.854 41.313C157.398 41.313 156.056 41.0019 154.816 40.3796C153.581 39.7574 152.71 38.9976 152.215 38.1001V48.6183C152.215 49.1149 152.448 49.4919 152.913 49.7611C153.378 50.0244 153.963 50.156 154.678 50.156H155.466V51.3227H144.515V50.156V50.162ZM163.751 36.8736C164.818 35.0906 165.349 32.6615 165.349 29.5862C165.349 26.5109 164.794 24.2074 163.679 22.6757C162.564 21.144 160.834 20.3722 158.484 20.3722C157.589 20.3722 156.653 20.6415 155.675 21.1859C154.702 21.7304 153.879 22.4902 153.217 23.4655C152.549 24.4407 152.221 25.5655 152.221 26.8399V33.3555C152.221 35.0966 152.788 36.5624 153.915 37.7531C155.042 38.9497 156.599 39.548 158.579 39.548C160.959 39.548 162.689 38.6565 163.751 36.8736Z" fill="#F4F4F4"/>
<path d="M172.214 39.6857H173.097C173.843 39.6857 174.433 39.5601 174.886 39.3148C175.334 39.0695 175.56 38.6925 175.56 38.1959V22.5083C175.56 21.8262 175.238 21.4852 174.588 21.4852C174.433 21.4852 174.201 21.539 173.89 21.6467C173.58 21.7544 173.366 21.8262 173.24 21.8561L172.918 20.7852L178.763 18.7389H179.927V38.1959C179.927 38.6925 180.153 39.0635 180.601 39.3148C181.048 39.5661 181.644 39.6857 182.39 39.6857H183.273V40.8524H172.226V39.6857H172.214ZM175.441 14.0123C174.964 13.5337 174.719 12.9174 174.719 12.1755C174.719 11.4336 174.958 10.7814 175.441 10.3148C175.918 9.84809 176.563 9.61475 177.368 9.61475C178.173 9.61475 178.769 9.84809 179.247 10.3148C179.724 10.7814 179.968 11.4037 179.968 12.1755C179.968 12.9473 179.73 13.5337 179.247 14.0123C178.763 14.491 178.137 14.7363 177.368 14.7363C176.598 14.7363 175.924 14.4969 175.441 14.0123Z" fill="#F4F4F4"/>
<path d="M188.808 38.3633C186.845 36.3949 185.861 33.5769 185.861 29.9152C185.861 26.2536 186.857 23.5911 188.855 21.5628C190.854 19.5286 193.627 18.5115 197.182 18.5115C198.667 18.5115 200.093 18.7269 201.453 19.1636C202.813 19.6004 203.928 20.3423 204.793 21.3953L205.258 18.5115H206.421V26.2416H205.306C204.996 24.2552 204.232 22.7654 203.009 21.7723C201.787 20.7791 200.248 20.2825 198.393 20.2825C195.792 20.2825 193.794 21.1739 192.386 22.9569C190.979 24.7399 190.275 27.0792 190.275 29.9631C190.275 32.8469 190.949 35.2222 192.291 36.9932C193.639 38.7642 195.422 39.6437 197.653 39.6437C199.693 39.6437 201.363 39.1112 202.663 38.0403C203.964 36.9693 204.799 35.318 205.169 33.0803H206.558C206.308 35.5633 205.395 37.5556 203.821 39.0634C202.246 40.5711 199.997 41.319 197.093 41.319C193.532 41.319 190.776 40.3318 188.808 38.3633Z" fill="#F4F4F4"/>
<path d="M211.127 39.9907C210.06 39.1052 209.529 37.9026 209.529 36.3829C209.529 34.1154 210.71 32.2546 213.078 30.7947C215.446 29.3349 219.084 28.2639 224.005 27.5818V25.1587C224.005 23.5791 223.51 22.3825 222.52 21.5748C221.529 20.7671 220.211 20.3662 218.577 20.3662C217.402 20.3662 216.316 20.5996 215.326 21.0662C214.336 21.5329 213.841 22.0295 213.841 22.556C213.841 22.7415 213.871 22.9749 213.937 23.2561C213.996 23.5373 214.032 23.7527 214.032 23.9082C214.032 24.3749 213.895 24.7758 213.614 25.1168C213.334 25.4578 212.887 25.6313 212.266 25.6313C211.742 25.6313 211.3 25.4399 210.942 25.051C210.584 24.6621 210.411 24.1116 210.411 23.3997C210.411 21.85 211.294 20.6474 213.054 19.7919C214.819 18.9363 216.967 18.5115 219.501 18.5115C222.347 18.5115 224.542 19.1397 226.092 20.3961C227.637 21.6526 228.413 23.3697 228.413 25.5416V38.1539C228.413 39.1471 228.753 39.6437 229.432 39.6437C229.868 39.6437 230.423 39.5181 231.103 39.2728V40.0625C230.637 40.4634 230.053 40.7745 229.337 40.9959C228.627 41.2113 227.9 41.319 227.154 41.319C226.319 41.319 225.591 41.1455 224.971 40.8044C224.351 40.4634 224.041 39.907 224.041 39.1292V37.7351C222.8 39.0993 221.434 40.0386 219.931 40.5531C218.428 41.0677 216.967 41.319 215.547 41.319C213.662 41.319 212.183 40.8762 211.115 39.9907H211.127ZM221.291 38.3394C222.543 37.5915 223.45 36.7419 224.005 35.7786V29.1255C220.724 29.7776 218.213 30.717 216.465 31.9435C214.718 33.17 213.841 34.5401 213.841 36.0599C213.841 37.1787 214.181 38.0223 214.861 38.5967C215.541 39.1711 216.483 39.4582 217.694 39.4582C218.905 39.4582 220.038 39.0873 221.291 38.3394Z" fill="#F4F4F4"/>
<path d="M259.5 39.6856V40.8523H248.686V39.6856H249.432C250.142 39.6856 250.714 39.56 251.15 39.3147C251.585 39.0693 251.8 38.6924 251.8 38.1958V25.398C251.8 23.7527 251.382 22.5142 250.547 21.6765C249.712 20.8389 248.519 20.4201 246.974 20.4201C245.889 20.4201 244.845 20.6953 243.843 21.2338C242.835 21.7782 242.012 22.5919 241.362 23.6749C240.712 24.7638 240.389 26.0621 240.389 27.5878V38.2018C240.389 38.6984 240.616 39.0693 241.063 39.3206C241.511 39.5719 242.089 39.6916 242.805 39.6916H243.503V40.8583H232.689V39.6916H233.572C234.318 39.6916 234.908 39.5659 235.361 39.3206C235.809 39.0753 236.035 38.6984 236.035 38.2018V22.562C236.035 21.9099 235.713 21.5868 235.063 21.5868C234.783 21.5868 234.335 21.7124 233.715 21.9577L233.393 20.9346L239.238 18.8405H240.401V22.4723C241.081 21.3534 242.125 20.4141 243.533 19.6542C244.94 18.8944 246.509 18.5115 248.245 18.5115C250.81 18.5115 252.778 19.0859 254.138 20.2346C255.498 21.3834 256.178 22.921 256.178 24.8416V38.2018C256.178 38.6984 256.41 39.0693 256.876 39.3206C257.341 39.5719 257.943 39.6916 258.683 39.6916H259.518L259.5 39.6856Z" fill="#F4F4F4"/>
<path d="M12.3994 8.28657V40.1046C12.3994 40.3379 12.4412 40.5653 12.5247 40.7747H15.0835V40.7388C15.0835 40.4456 15.2028 40.1764 15.3936 39.9849C15.5845 39.7935 15.8529 39.6738 16.1452 39.6738C16.4971 39.6738 16.8013 39.8413 16.9921 40.1046C17.022 40.0627 17.0578 40.0208 17.0935 39.9849C17.2844 39.7935 17.5528 39.6738 17.8451 39.6738C18.197 39.6738 18.5012 39.8413 18.698 40.1046C18.7219 40.0627 18.7577 40.0208 18.7934 39.9849C18.9843 39.7935 19.2527 39.6738 19.545 39.6738C19.8194 39.6738 20.0639 39.7755 20.2548 39.9431C20.4695 40.1345 20.6126 40.4217 20.6126 40.7388V40.7747H24.7282V40.7388C24.7282 40.4456 24.8475 40.1764 25.0384 39.9849C25.0622 39.961 25.092 39.9371 25.1219 39.9131C25.3068 39.7636 25.5334 39.6738 25.7899 39.6738C26.1418 39.6738 26.446 39.8413 26.6369 40.1046C26.6667 40.0627 26.7025 40.0208 26.7383 39.9849C26.9351 39.7935 27.1975 39.6738 27.4898 39.6738C27.8417 39.6738 28.1459 39.8413 28.3427 40.1046C28.3666 40.0627 28.4024 40.0208 28.4382 39.9849C28.629 39.7935 28.8915 39.6738 29.1897 39.6738C29.7742 39.6738 30.2514 40.1525 30.2514 40.7388V40.7747H32.2615C32.339 40.5713 32.3808 40.3439 32.3808 40.1046V12.5824H26.0285C24.4598 12.5824 23.0343 11.9422 22.0084 10.9131C20.9824 9.88405 20.3442 8.45409 20.3442 6.88054C20.3442 3.72746 22.8911 1.17268 26.0344 1.17268H28.3606C27.114 0.424799 25.6646 0 24.1139 0H20.6604C16.0975 0 12.3994 3.70951 12.3994 8.28657ZM14.1769 7.61646C14.1769 6.06086 14.8091 4.64885 15.8231 3.62575C16.843 2.60264 18.2507 1.97442 19.8015 1.97442C20.1474 1.97442 20.4934 1.99237 20.8333 2.02228C19.6046 3.26078 18.8412 4.97194 18.8412 6.85661C18.8412 10.62 21.8712 13.6713 25.6169 13.6893H30.3468V16.9261C30.3468 25.1828 23.6725 31.8779 15.4413 31.8779C14.7435 31.8779 14.1769 31.3095 14.1769 30.6094V7.61646Z" fill="#F4F4F4"/>
<path d="M43.7851 10.3567H22.7719C23.6606 11.2302 24.8773 11.7687 26.2253 11.7687H40.3375C41.6796 11.7687 42.8963 11.2302 43.7851 10.3567Z" fill="#F4F4F4"/>
<path d="M21.2986 6.80286C21.2986 7.96358 21.6862 9.02857 22.3483 9.87816H42.5444C43.1587 9.84227 43.7134 9.84825 44.2085 9.87816C47.7515 10.0936 48.5626 11.6671 48.676 11.9543C48.6879 11.9782 48.7118 11.9782 48.7237 11.9603C49.177 11.3141 49.2903 7.20971 46.9641 5.11563C45.4133 3.72157 43.8983 2.88992 42.5384 2.41726C42.5384 2.41726 42.5384 2.41726 42.5265 2.41726C42.4191 2.38136 42.3177 2.34546 42.2163 2.30956C42.109 2.27367 42.0076 2.24375 41.9062 2.21384C41.8346 2.1899 41.769 2.17195 41.7034 2.154C41.5901 2.12409 41.4767 2.09417 41.3634 2.07024C41.089 2.00443 40.8206 1.95058 40.5701 1.91468C40.4449 1.90271 40.3315 1.89673 40.2063 1.88477H26.3684C23.6307 1.88477 21.2986 4.05662 21.2866 6.80286H21.2986Z" fill="#F4F4F4"/>
<path d="M6.39307 25.9846C6.39307 33.4096 8.59996 39.4226 11.3198 39.4226V12.5466C8.59996 12.5466 6.39307 18.5656 6.39307 25.9846Z" fill="#F4F4F4"/>
<path d="M38.3215 25.9846C38.3215 18.5596 36.1146 12.5466 33.3948 12.5466V39.4286C36.1146 39.4286 38.3215 33.4096 38.3215 25.9906V25.9846Z" fill="#F4F4F4"/>
<path d="M16.7774 7.67634C17.3374 7.67634 17.7914 7.22096 17.7914 6.65921C17.7914 6.09747 17.3374 5.64209 16.7774 5.64209C16.2174 5.64209 15.7634 6.09747 15.7634 6.65921C15.7634 7.22096 16.2174 7.67634 16.7774 7.67634Z" stroke="#F4F4F4" stroke-miterlimit="10"/>
<path d="M27.9073 44.3167L30.0367 53.4468C30.1679 54.0033 30.7942 54.2785 31.2892 54.0033C31.3847 53.9494 31.4682 53.8776 31.5398 53.7998C32.1303 53.0699 32.6372 52.2682 33.0428 51.4066C33.1383 51.1972 33.1442 50.9579 33.0607 50.7365L30.2395 43.4072C30.2097 43.9696 29.7444 44.4064 29.1778 44.4064C28.8318 44.4064 28.5217 44.2389 28.3308 43.9756C28.2235 44.1252 28.0743 44.2449 27.9014 44.3226L27.9073 44.3167Z" fill="#F4F4F4"/>
<path d="M12.2801 51.4008C12.6797 52.2623 13.1867 53.07 13.7832 53.794C13.8548 53.8778 13.9383 53.9495 14.0337 53.9974C14.5288 54.2786 15.161 53.9974 15.2863 53.441L17.4156 44.3108C17.2426 44.233 17.0935 44.1193 16.9862 43.9638C16.7953 44.227 16.4851 44.3946 16.1392 44.3946C15.5726 44.3946 15.1133 43.9518 15.0835 43.3894L12.2622 50.7187C12.1787 50.9341 12.1787 51.1794 12.2801 51.3888V51.4008Z" fill="#F4F4F4"/>
<path d="M20.2488 39.9491C20.4635 40.1406 20.6067 40.4218 20.6067 40.7389V40.7748H24.7222V40.7389C24.7222 40.4457 24.8415 40.1825 25.0324 39.991C25.0562 39.9671 25.0861 39.9432 25.1159 39.9192C24.5135 39.4885 23.756 39.2611 22.9686 39.3269C22.7897 39.3449 22.6167 39.3449 22.4378 39.3269C22.3483 39.3209 22.2588 39.3149 22.1694 39.3149C21.4596 39.3149 20.7975 39.5483 20.2547 39.9491H20.2488Z" fill="#F4F4F4"/>
<path d="M17.7258 56.8512C19.2288 57.5871 20.9168 58 22.7062 58C24.5015 58 26.2014 57.5812 27.7164 56.8392C29.0943 56.1572 29.7981 54.5836 29.3984 53.0938L27.0603 44.3107C26.8933 44.2389 26.7502 44.1192 26.6428 43.9696C26.4519 44.2329 26.1418 44.4004 25.7958 44.4004C25.2292 44.4004 24.7699 43.9577 24.7341 43.3953H20.6126C20.5828 43.9577 20.1176 44.4004 19.5509 44.4004C19.199 44.4004 18.8948 44.2329 18.704 43.9696C18.6145 44.0893 18.5071 44.185 18.3759 44.2628L16.0199 53.0938C15.6203 54.6016 16.342 56.1751 17.7377 56.8572L17.7258 56.8512Z" fill="#F4F4F4"/>
<path d="M25.1517 40.7747V43.3056C25.1517 43.6586 25.438 43.9457 25.784 43.9457C26.1299 43.9457 26.4043 43.6765 26.4222 43.3355V40.7747C26.4222 40.4217 26.1359 40.1345 25.784 40.1345C25.6766 40.1345 25.5752 40.1585 25.4798 40.2123C25.4261 40.2422 25.3784 40.2781 25.3307 40.326C25.2173 40.4397 25.1458 40.6012 25.1458 40.7747H25.1517Z" fill="#F4F4F4"/>
<path d="M26.8456 40.7746V43.3354C26.8575 43.6764 27.1378 43.9456 27.4838 43.9456C27.5971 43.9456 27.7045 43.9157 27.7999 43.8619C27.9848 43.7542 28.1101 43.5567 28.122 43.3294V40.7686C28.122 40.6729 28.1041 40.5772 28.0624 40.4994C27.961 40.278 27.7403 40.1284 27.4838 40.1284C27.3049 40.1284 27.1498 40.2002 27.0305 40.3199C26.9172 40.4336 26.8456 40.5951 26.8456 40.7686V40.7746Z" fill="#F4F4F4"/>
<path d="M28.5515 40.7747V43.3355C28.5634 43.6765 28.8438 43.9457 29.1838 43.9457C29.5237 43.9457 29.822 43.6586 29.822 43.3056V40.7747C29.822 40.4217 29.5357 40.1345 29.1838 40.1345C29.0048 40.1345 28.8497 40.2063 28.7364 40.326C28.6589 40.4038 28.5992 40.5055 28.5694 40.6191C28.5575 40.667 28.5515 40.7209 28.5515 40.7807V40.7747Z" fill="#F4F4F4"/>
<path d="M15.507 40.7747V43.3056C15.507 43.6586 15.7933 43.9457 16.1452 43.9457C16.4971 43.9457 16.7655 43.6765 16.7774 43.3355V40.7747C16.7774 40.7209 16.7774 40.667 16.7595 40.6132C16.6879 40.3379 16.4374 40.1345 16.1452 40.1345C15.9662 40.1345 15.8112 40.2063 15.6919 40.326C15.5726 40.4456 15.507 40.6012 15.507 40.7747Z" fill="#F4F4F4"/>
<path d="M17.2069 40.7746V43.3353C17.2129 43.5627 17.3441 43.7601 17.529 43.8678C17.6244 43.9217 17.7318 43.9516 17.8451 43.9516C18.1911 43.9516 18.4654 43.6824 18.4833 43.3413V40.7806C18.4833 40.4276 18.197 40.1404 17.8451 40.1404C17.6662 40.1404 17.5111 40.2122 17.3918 40.3318C17.3381 40.3857 17.2964 40.4455 17.2666 40.5173C17.2308 40.5951 17.2069 40.6908 17.2069 40.7866V40.7746Z" fill="#F4F4F4"/>
<path d="M18.9067 40.7747V43.3355C18.9187 43.6765 19.199 43.9457 19.5449 43.9457C19.8909 43.9457 20.1772 43.6586 20.1772 43.3056V40.7747C20.1772 40.5533 20.0639 40.3619 19.8969 40.2422C19.7955 40.1704 19.6762 40.1345 19.5449 40.1345C19.366 40.1345 19.2109 40.2063 19.0976 40.326C18.9783 40.4397 18.9067 40.6012 18.9067 40.7747Z" fill="#F4F4F4"/>
<path d="M20.0519 43.3774H21.3701H21.6027H21.6385H21.7518H21.7876H21.9069H21.9427H22.056H22.0918H22.4616H22.5033H22.6167H22.6524H22.7658H22.8016H22.9208H22.9566H23.1356H25.1218" stroke="#F4F4F4" stroke-width="0.5" stroke-miterlimit="10"/>
<path d="M0.5 40.655H15.2683H17.8271H18.2566H19.527H19.9505H21.2269H21.6504H22.9209H23.3503H27.4718H27.8953H29.1717H29.5952H30.8716H31.2951H32.5656H32.995H34.9991H57.1874" stroke="#F4F4F4" stroke-width="2" stroke-miterlimit="10"/>
<path d="M0.5 43.2815H17.8331H18.2625H19.5151H19.9565H21.221H21.6623H22.9149H23.3503H27.4718H27.9013H29.1598H29.6012H30.8657H31.3071H32.5596H57.1874" stroke="#F4F4F4" stroke-width="2" stroke-miterlimit="10"/>
</g>
<defs>
<clipPath id="clip0_196_50">
<rect width="259" height="58" fill="white" transform="translate(0.5)"/>
</clipPath>
</defs>
</svg>
