<svg width="53" height="54" viewBox="0 0 53 54" fill="none" xmlns="http://www.w3.org/2000/svg">
<g clip-path="url(#clip0_185_63)">
<path d="M11.1253 7.86664V36.9417C11.1253 37.155 11.1643 37.3627 11.2424 37.5541H13.6348V37.5213C13.6348 37.2534 13.7463 37.0073 13.9248 36.8324C14.1032 36.6574 14.3542 36.5481 14.6274 36.5481C14.9564 36.5481 15.2408 36.7012 15.4193 36.9417C15.4472 36.9035 15.4806 36.8652 15.5141 36.8324C15.6925 36.6574 15.9435 36.5481 16.2167 36.5481C16.5458 36.5481 16.8302 36.7012 17.0142 36.9417C17.0365 36.9035 17.07 36.8652 17.1034 36.8324C17.2819 36.6574 17.5328 36.5481 17.8061 36.5481C18.0626 36.5481 18.2912 36.641 18.4697 36.7941C18.6704 36.9691 18.8043 37.2315 18.8043 37.5213V37.5541H22.6521V37.5213C22.6521 37.2534 22.7637 37.0073 22.9421 36.8324C22.9644 36.8105 22.9923 36.7887 23.0202 36.7668C23.1931 36.6301 23.405 36.5481 23.6448 36.5481C23.9738 36.5481 24.2582 36.7012 24.4366 36.9417C24.4645 36.9035 24.498 36.8652 24.5315 36.8324C24.7155 36.6574 24.9608 36.5481 25.2341 36.5481C25.5631 36.5481 25.8475 36.7012 26.0316 36.9417C26.0539 36.9035 26.0873 36.8652 26.1208 36.8324C26.2992 36.6574 26.5446 36.5481 26.8234 36.5481C27.3699 36.5481 27.8161 36.9855 27.8161 37.5213V37.5541H29.6954C29.7679 37.3682 29.8069 37.1604 29.8069 36.9417V11.7922H23.8678C22.4012 11.7922 21.0684 11.2072 20.1092 10.2668C19.15 9.32641 18.5533 8.01973 18.5533 6.58183C18.5533 3.70056 20.9345 1.36602 23.8734 1.36602H26.0483C24.8828 0.682612 23.5277 0.294434 22.0777 0.294434H18.8489C14.5828 0.294434 11.1253 3.68416 11.1253 7.86664ZM12.7871 7.25431C12.7871 5.83281 13.3783 4.54253 14.3263 3.60762C15.2799 2.67271 16.5959 2.09864 18.0459 2.09864C18.3693 2.09864 18.6927 2.11504 19.0106 2.14238C17.8618 3.27411 17.148 4.83776 17.148 6.55996C17.148 9.99889 19.9809 12.7872 23.483 12.8036H27.9053V15.7614C27.9053 23.3063 21.6651 29.4242 13.9694 29.4242C13.3169 29.4242 12.7871 28.9048 12.7871 28.2651V7.25431Z" fill="#F4F4F4"/>
<path d="M40.4694 9.7583H20.823C21.6539 10.5565 22.7916 11.0486 24.0519 11.0486H37.2461C38.5008 11.0486 39.6385 10.5565 40.4694 9.7583Z" fill="#F4F4F4"/>
<path d="M19.4456 6.51072C19.4456 7.57138 19.8081 8.54456 20.4271 9.32091H39.3094C39.8838 9.28811 40.4025 9.29358 40.8653 9.32091C44.1778 9.51774 44.9362 10.9556 45.0422 11.2181C45.0533 11.2399 45.0757 11.2399 45.0868 11.2235C45.5106 10.6331 45.6166 6.8825 43.4417 4.96894C41.9918 3.69506 40.5753 2.93511 39.3039 2.50319C39.3039 2.50319 39.3039 2.50319 39.2927 2.50319C39.1923 2.47039 39.0975 2.43758 39.0027 2.40478C38.9024 2.37198 38.8076 2.34464 38.7128 2.3173C38.6458 2.29543 38.5845 2.27903 38.5231 2.26263C38.4172 2.23529 38.3112 2.20796 38.2053 2.18609C37.9488 2.12595 37.6978 2.07674 37.4636 2.04394C37.3465 2.033 37.2405 2.02754 37.1234 2.0166H24.1857C21.6261 2.0166 19.4456 4.00123 19.4344 6.51072H19.4456Z" fill="#F4F4F4"/>
<path d="M5.50967 24.0388C5.50967 30.8237 7.57302 36.3184 10.1159 36.3184V11.7593C7.57302 11.7593 5.50967 17.2594 5.50967 24.0388Z" fill="#F4F4F4"/>
<path d="M35.3612 24.0388C35.3612 17.2539 33.2979 11.7593 30.7549 11.7593V36.3239C33.2979 36.3239 35.3612 30.8237 35.3612 24.0443V24.0388Z" fill="#F4F4F4"/>
<path d="M15.2185 7.30908C15.7421 7.30908 16.1666 6.89295 16.1666 6.37964C16.1666 5.86632 15.7421 5.4502 15.2185 5.4502C14.695 5.4502 14.2705 5.86632 14.2705 6.37964C14.2705 6.89295 14.695 7.30908 15.2185 7.30908Z" stroke="#F4F4F4" stroke-miterlimit="10"/>
<path d="M25.6245 40.7907L27.6153 49.1338C27.738 49.6423 28.3235 49.8938 28.7864 49.6423C28.8756 49.5931 28.9537 49.5275 29.0206 49.4564C29.5727 48.7894 30.0467 48.0568 30.4259 47.2695C30.5152 47.0781 30.5207 46.8594 30.4427 46.6572L27.8049 39.9597C27.777 40.4736 27.3421 40.8728 26.8123 40.8728C26.4888 40.8728 26.1989 40.7197 26.0204 40.4791C25.92 40.6158 25.7806 40.7251 25.6189 40.7962L25.6245 40.7907Z" fill="#F4F4F4"/>
<path d="M11.0138 47.2641C11.3874 48.0514 11.8614 48.7895 12.4191 49.451C12.486 49.5275 12.5641 49.5931 12.6533 49.6369C13.1162 49.8938 13.7073 49.6369 13.8244 49.1284L15.8152 40.7853C15.6535 40.7142 15.5141 40.6104 15.4137 40.4682C15.2353 40.7088 14.9453 40.8619 14.6218 40.8619C14.0921 40.8619 13.6627 40.4573 13.6348 39.9434L10.997 46.6408C10.919 46.8376 10.919 47.0618 11.0138 47.2531V47.2641Z" fill="#F4F4F4"/>
<path d="M18.4641 36.7995C18.6649 36.9745 18.7987 37.2314 18.7987 37.5212V37.554H22.6466V37.5212C22.6466 37.2533 22.7581 37.0127 22.9365 36.8378C22.9589 36.8159 22.9867 36.794 23.0146 36.7722C22.4514 36.3785 21.7432 36.1708 21.007 36.2309C20.8397 36.2473 20.678 36.2473 20.5107 36.2309C20.4271 36.2254 20.3434 36.22 20.2598 36.22C19.5962 36.22 18.9772 36.4332 18.4697 36.7995H18.4641Z" fill="#F4F4F4"/>
<path d="M16.1052 52.2447C17.5105 52.9172 19.0887 53.2944 20.7617 53.2944C22.4402 53.2944 24.0296 52.9117 25.446 52.2338C26.7342 51.6105 27.3922 50.1726 27.0186 48.8112L24.8326 40.7852C24.6764 40.7196 24.5426 40.6103 24.4422 40.4736C24.2638 40.7142 23.9738 40.8672 23.6503 40.8672C23.1206 40.8672 22.6912 40.4627 22.6577 39.9487H18.8043C18.7764 40.4627 18.3414 40.8672 17.8116 40.8672C17.4826 40.8672 17.1982 40.7142 17.0198 40.4736C16.9361 40.5829 16.8357 40.6704 16.7131 40.7415L14.5103 48.8112C14.1367 50.189 14.8114 51.6269 16.1164 52.2502L16.1052 52.2447Z" fill="#F4F4F4"/>
<path d="M23.0481 37.554V39.8667C23.0481 40.1892 23.3157 40.4517 23.6392 40.4517C23.9626 40.4517 24.2192 40.2056 24.2359 39.894V37.554C24.2359 37.2314 23.9682 36.969 23.6392 36.969C23.5388 36.969 23.444 36.9909 23.3548 37.0401C23.3046 37.0674 23.26 37.1002 23.2154 37.1439C23.1094 37.2478 23.0425 37.3954 23.0425 37.554H23.0481Z" fill="#F4F4F4"/>
<path d="M24.6318 37.5541V39.8941C24.643 40.2057 24.9051 40.4518 25.2285 40.4518C25.3345 40.4518 25.4349 40.4244 25.5241 40.3752C25.697 40.2768 25.8141 40.0964 25.8252 39.8886V37.5486C25.8252 37.4611 25.8085 37.3737 25.7695 37.3026C25.6747 37.1003 25.4683 36.9636 25.2285 36.9636C25.0612 36.9636 24.9162 37.0292 24.8047 37.1386C24.6988 37.2425 24.6318 37.3901 24.6318 37.5486V37.5541Z" fill="#F4F4F4"/>
<path d="M26.2267 37.554V39.894C26.2379 40.2056 26.5 40.4517 26.8179 40.4517C27.1357 40.4517 27.4146 40.1892 27.4146 39.8667V37.554C27.4146 37.2314 27.1469 36.969 26.8179 36.969C26.6506 36.969 26.5056 37.0346 26.3996 37.1439C26.3271 37.215 26.2714 37.308 26.2435 37.4118C26.2323 37.4556 26.2267 37.5048 26.2267 37.5595V37.554Z" fill="#F4F4F4"/>
<path d="M14.0307 37.554V39.8667C14.0307 40.1892 14.2984 40.4517 14.6274 40.4517C14.9564 40.4517 15.2074 40.2056 15.2185 39.894V37.554C15.2185 37.5048 15.2185 37.4556 15.2018 37.4064C15.1349 37.1549 14.9007 36.969 14.6274 36.969C14.4601 36.969 14.3151 37.0346 14.2036 37.1439C14.0921 37.2533 14.0307 37.3954 14.0307 37.554Z" fill="#F4F4F4"/>
<path d="M15.6201 37.5541V39.8941C15.6256 40.1019 15.7483 40.2823 15.9212 40.3807C16.0104 40.4299 16.1108 40.4573 16.2168 40.4573C16.5402 40.4573 16.7967 40.2113 16.8134 39.8996V37.5596C16.8134 37.237 16.5458 36.9746 16.2168 36.9746C16.0495 36.9746 15.9045 37.0402 15.7929 37.1496C15.7427 37.1988 15.7037 37.2534 15.6758 37.3191C15.6424 37.3901 15.6201 37.4776 15.6201 37.5651V37.5541Z" fill="#F4F4F4"/>
<path d="M17.2094 37.554V39.894C17.2205 40.2056 17.4826 40.4517 17.8061 40.4517C18.1295 40.4517 18.3972 40.1892 18.3972 39.8667V37.554C18.3972 37.3517 18.2912 37.1768 18.1351 37.0674C18.0403 37.0018 17.9288 36.969 17.8061 36.969C17.6388 36.969 17.4938 37.0346 17.3878 37.1439C17.2763 37.2478 17.2094 37.3954 17.2094 37.554Z" fill="#F4F4F4"/>
<path d="M18.2801 39.9324H19.5125H19.73H19.7635H19.8694H19.9029H20.0144H20.0479H20.1538H20.1873H20.533H20.5721H20.678H20.7115H20.8174H20.8509H20.9624H20.9959H21.1632H23.0202" stroke="#F4F4F4" stroke-width="0.5" stroke-miterlimit="10"/>
<path d="M0 37.4448H13.8077H16.2H16.6015H17.7894H18.1853H19.3787H19.7746H20.9624H21.364H25.2174H25.6133H26.8067H27.2027H28.396H28.792H29.9798H30.3813H32.2551H53" stroke="#F4F4F4" stroke-width="2" stroke-miterlimit="10"/>
<path d="M0 39.845H16.2056H16.6071H17.7782H18.1909H19.3731H19.7858H20.9569H21.364H25.2174H25.6189H26.7956H27.2082H28.3905H28.8031H29.9742H53" stroke="#F4F4F4" stroke-width="2" stroke-miterlimit="10"/>
</g>
<defs>
<clipPath id="clip0_185_63">
<rect width="53" height="53" fill="white" transform="translate(0 0.294434)"/>
</clipPath>
</defs>
</svg>
