<svg width="53" height="53" viewBox="0 0 53 53" fill="none" xmlns="http://www.w3.org/2000/svg">
<path d="M11.1253 7.57221V36.6473C11.1253 36.8605 11.1644 37.0683 11.2424 37.2596H13.6348V37.2268C13.6348 36.9589 13.7463 36.7129 13.9248 36.538C14.1032 36.363 14.3542 36.2537 14.6274 36.2537C14.9564 36.2537 15.2408 36.4067 15.4193 36.6473C15.4472 36.609 15.4806 36.5708 15.5141 36.538C15.6926 36.363 15.9435 36.2537 16.2168 36.2537C16.5458 36.2537 16.8302 36.4067 17.0142 36.6473C17.0365 36.609 17.07 36.5708 17.1034 36.538C17.2819 36.363 17.5328 36.2537 17.8061 36.2537C18.0626 36.2537 18.2912 36.3466 18.4697 36.4997C18.6705 36.6746 18.8043 36.9371 18.8043 37.2268V37.2596H22.6522V37.2268C22.6522 36.9589 22.7637 36.7129 22.9421 36.538C22.9644 36.5161 22.9923 36.4942 23.0202 36.4724C23.1931 36.3357 23.405 36.2537 23.6448 36.2537C23.9738 36.2537 24.2582 36.4067 24.4367 36.6473C24.4645 36.609 24.498 36.5708 24.5315 36.538C24.7155 36.363 24.9609 36.2537 25.2341 36.2537C25.5631 36.2537 25.8475 36.4067 26.0316 36.6473C26.0539 36.609 26.0873 36.5708 26.1208 36.538C26.2992 36.363 26.5446 36.2537 26.8234 36.2537C27.37 36.2537 27.8161 36.691 27.8161 37.2268V37.2596H29.6954C29.7679 37.0738 29.8069 36.866 29.8069 36.6473V11.4977H23.8678C22.4012 11.4977 21.0684 10.9127 20.1092 9.97235C19.15 9.03198 18.5534 7.72529 18.5534 6.28739C18.5534 3.40613 20.9346 1.07159 23.8734 1.07159H26.0483C24.8828 0.388178 23.5277 0 22.0778 0H18.8489C14.5828 0 11.1253 3.38973 11.1253 7.57221ZM12.7871 6.95987C12.7871 5.53837 13.3783 4.24809 14.3263 3.31318C15.2799 2.37828 16.596 1.80421 18.0459 1.80421C18.3693 1.80421 18.6928 1.82061 19.0106 1.84795C17.8619 2.97968 17.148 4.54333 17.148 6.26552C17.148 9.70446 19.981 12.4928 23.4831 12.5092H27.9053V15.467C27.9053 23.0119 21.6651 29.1298 13.9694 29.1298C13.3169 29.1298 12.7871 28.6104 12.7871 27.9707V6.95987Z" fill="#E94B48"/>
<path d="M40.4694 9.46387H20.823C21.6539 10.2621 22.7916 10.7542 24.0519 10.7542H37.2461C38.5008 10.7542 39.6385 10.2621 40.4694 9.46387Z" fill="#E94B48"/>
<path d="M19.4456 6.21629C19.4456 7.27694 19.8081 8.25012 20.4271 9.02648H39.3094C39.8838 8.99368 40.4025 8.99914 40.8653 9.02648C44.1778 9.2233 44.9362 10.6612 45.0422 10.9236C45.0533 10.9455 45.0757 10.9455 45.0868 10.9291C45.5106 10.3386 45.6166 6.58806 43.4417 4.67451C41.9918 3.40063 40.5753 2.64067 39.3039 2.20876C39.3039 2.20876 39.3039 2.20876 39.2927 2.20876C39.1923 2.17595 39.0975 2.14315 39.0027 2.11035C38.9024 2.07754 38.8076 2.05021 38.7128 2.02287C38.6458 2.001 38.5845 1.9846 38.5231 1.9682C38.4172 1.94086 38.3112 1.91352 38.2053 1.89165C37.9488 1.83151 37.6978 1.78231 37.4636 1.7495C37.3465 1.73857 37.2405 1.7331 37.1234 1.72217H24.1857C21.6261 1.72217 19.4456 3.7068 19.4344 6.21629H19.4456Z" fill="#E94B48"/>
<path d="M5.50968 23.7444C5.50968 30.5293 7.57302 36.024 10.116 36.024V11.4648C7.57302 11.4648 5.50968 16.9649 5.50968 23.7444Z" fill="#E94B48"/>
<path d="M35.3612 23.7444C35.3612 16.9595 33.2979 11.4648 30.7549 11.4648V36.0294C33.2979 36.0294 35.3612 30.5293 35.3612 23.7499V23.7444Z" fill="#E94B48"/>
<path d="M15.2185 7.01464C15.7421 7.01464 16.1666 6.59852 16.1666 6.0852C16.1666 5.57189 15.7421 5.15576 15.2185 5.15576C14.695 5.15576 14.2705 5.57189 14.2705 6.0852C14.2705 6.59852 14.695 7.01464 15.2185 7.01464Z" stroke="#E94B48" stroke-miterlimit="10"/>
<path d="M25.6245 40.4963L27.6153 48.8394C27.738 49.3479 28.3235 49.5994 28.7864 49.3479C28.8756 49.2987 28.9537 49.2331 29.0206 49.162C29.5727 48.495 30.0467 47.7624 30.4259 46.9751C30.5152 46.7837 30.5207 46.565 30.4427 46.3627L27.8049 39.6653C27.777 40.1792 27.3421 40.5783 26.8123 40.5783C26.4888 40.5783 26.1989 40.4252 26.0204 40.1847C25.92 40.3214 25.7806 40.4307 25.6189 40.5018L25.6245 40.4963Z" fill="#E94B48"/>
<path d="M11.0138 46.9696C11.3874 47.7569 11.8614 48.495 12.4191 49.1566C12.486 49.2331 12.5641 49.2987 12.6533 49.3424C13.1162 49.5994 13.7073 49.3424 13.8244 48.834L15.8152 40.4909C15.6535 40.4198 15.5141 40.3159 15.4137 40.1738C15.2353 40.4144 14.9453 40.5674 14.6218 40.5674C14.0921 40.5674 13.6627 40.1629 13.6348 39.6489L10.9971 46.3464C10.919 46.5432 10.919 46.7674 11.0138 46.9587V46.9696Z" fill="#E94B48"/>
<path d="M18.4641 36.5051C18.6649 36.68 18.7987 36.937 18.7987 37.2268V37.2596H22.6466V37.2268C22.6466 36.9589 22.7581 36.7183 22.9366 36.5433C22.9589 36.5215 22.9867 36.4996 23.0146 36.4777C22.4514 36.0841 21.7432 35.8763 21.007 35.9365C20.8397 35.9529 20.678 35.9529 20.5107 35.9365C20.4271 35.931 20.3434 35.9255 20.2598 35.9255C19.5962 35.9255 18.9772 36.1388 18.4697 36.5051H18.4641Z" fill="#E94B48"/>
<path d="M16.1052 51.9503C17.5105 52.6227 19.0887 53 20.7617 53C22.4402 53 24.0296 52.6173 25.446 51.9393C26.7342 51.316 27.3923 49.8781 27.0186 48.5168L24.8326 40.4908C24.6765 40.4252 24.5426 40.3158 24.4422 40.1792C24.2638 40.4197 23.9738 40.5728 23.6504 40.5728C23.1206 40.5728 22.6912 40.1682 22.6577 39.6543H18.8043C18.7764 40.1682 18.3414 40.5728 17.8117 40.5728C17.4826 40.5728 17.1982 40.4197 17.0198 40.1792C16.9361 40.2885 16.8358 40.376 16.7131 40.4471L14.5103 48.5168C14.1367 49.8945 14.8114 51.3324 16.1164 51.9557L16.1052 51.9503Z" fill="#E94B48"/>
<path d="M23.0481 37.2596V39.5722C23.0481 39.8948 23.3158 40.1572 23.6392 40.1572C23.9626 40.1572 24.2192 39.9112 24.2359 39.5996V37.2596C24.2359 36.937 23.9682 36.6746 23.6392 36.6746C23.5388 36.6746 23.444 36.6964 23.3548 36.7456C23.3046 36.773 23.26 36.8058 23.2154 36.8495C23.1094 36.9534 23.0425 37.101 23.0425 37.2596H23.0481Z" fill="#E94B48"/>
<path d="M24.6318 37.2597V39.5997C24.643 39.9113 24.9051 40.1573 25.2285 40.1573C25.3345 40.1573 25.4349 40.13 25.5241 40.0808C25.697 39.9824 25.8141 39.802 25.8252 39.5942V37.2542C25.8252 37.1667 25.8085 37.0792 25.7695 37.0082C25.6747 36.8059 25.4683 36.6692 25.2285 36.6692C25.0612 36.6692 24.9162 36.7348 24.8047 36.8441C24.6988 36.948 24.6318 37.0956 24.6318 37.2542V37.2597Z" fill="#E94B48"/>
<path d="M26.2267 37.2596V39.5996C26.2379 39.9112 26.5 40.1572 26.8179 40.1572C27.1357 40.1572 27.4146 39.8948 27.4146 39.5722V37.2596C27.4146 36.937 27.1469 36.6746 26.8179 36.6746C26.6506 36.6746 26.5056 36.7402 26.3996 36.8495C26.3271 36.9206 26.2714 37.0135 26.2435 37.1174C26.2323 37.1611 26.2267 37.2104 26.2267 37.265V37.2596Z" fill="#E94B48"/>
<path d="M14.0307 37.2596V39.5722C14.0307 39.8948 14.2984 40.1572 14.6274 40.1572C14.9564 40.1572 15.2074 39.9112 15.2185 39.5996V37.2596C15.2185 37.2104 15.2185 37.1611 15.2018 37.1119C15.1349 36.8604 14.9007 36.6746 14.6274 36.6746C14.4601 36.6746 14.3151 36.7402 14.2036 36.8495C14.0921 36.9589 14.0307 37.101 14.0307 37.2596Z" fill="#E94B48"/>
<path d="M15.6201 37.2597V39.5997C15.6256 39.8075 15.7483 39.9879 15.9212 40.0863C16.0104 40.1355 16.1108 40.1628 16.2168 40.1628C16.5402 40.1628 16.7967 39.9168 16.8134 39.6052V37.2652C16.8134 36.9426 16.5458 36.6802 16.2168 36.6802C16.0495 36.6802 15.9045 36.7458 15.7929 36.8551C15.7427 36.9043 15.7037 36.959 15.6758 37.0246C15.6424 37.0957 15.6201 37.1832 15.6201 37.2706V37.2597Z" fill="#E94B48"/>
<path d="M17.2094 37.2596V39.5996C17.2205 39.9112 17.4826 40.1572 17.8061 40.1572C18.1295 40.1572 18.3972 39.8948 18.3972 39.5722V37.2596C18.3972 37.0573 18.2912 36.8823 18.1351 36.773C18.0403 36.7074 17.9288 36.6746 17.8061 36.6746C17.6388 36.6746 17.4938 36.7402 17.3878 36.8495C17.2763 36.9534 17.2094 37.101 17.2094 37.2596Z" fill="#E94B48"/>
<path d="M18.2801 39.6379H19.5125H19.73H19.7635H19.8694H19.9029H20.0144H20.0479H20.1538H20.1873H20.533H20.5721H20.678H20.7115H20.8174H20.8509H20.9624H20.9959H21.1632H23.0202" stroke="#EA5D4C" stroke-width="0.5" stroke-miterlimit="10"/>
<path d="M0 37.1504H13.8077H16.2H16.6015H17.7894H18.1853H19.3787H19.7746H20.9624H21.364H25.2174H25.6133H26.8067H27.2027H28.396H28.792H29.9798H30.3813H32.2551H53" stroke="#E94B48" stroke-width="2" stroke-miterlimit="10"/>
<path d="M0 39.5505H16.2056H16.6071H17.7782H18.1909H19.3731H19.7858H20.9569H21.364H25.2174H25.6189H26.7956H27.2082H28.3905H28.8031H29.9742H53" stroke="#E94B48" stroke-width="2" stroke-miterlimit="10"/>
</svg>
